<?xml version="1.0" encoding="UTF-8" standalone="no"?>
<!-- Created with Inkscape (http://www.inkscape.org/) -->
<svg
   xmlns:svg="http://www.w3.org/2000/svg"
   xmlns="http://www.w3.org/2000/svg"
   version="1.0"
   width="290.85999"
   height="427.39001"
   id="svg2">
  <defs
     id="defs59" />
  <g
     transform="translate(1.0000001,0.9973246)"
     id="g15782">
    <path
       d="M 100.90336,182.59056 L 271.8325,364.68111"
       style="fill:none;stroke:#ff3b05;stroke-width:1.00899994;stroke-linejoin:round;stroke-miterlimit:4;stroke-dasharray:8.072, 8.072;stroke-dashoffset:1.81620034;stroke-opacity:1"
       id="path54" />
    <path
       d="M 157.87974,364.68111 L 228.28525,225.57087"
       style="fill:none;stroke:#ff3b05;stroke-width:1.00899994;stroke-linejoin:round;stroke-miterlimit:4;stroke-dasharray:8.072, 8.072;stroke-dashoffset:1.81620034;stroke-opacity:1"
       id="path56" />
    <path
       d="M 157.87974,278.72048 C 157.87974,289.77559 162.9821,300.15748 171.59234,306.64174 C 180.20257,313.16142 191.29313,314.96851 201.39155,311.56693"
       style="fill:none;stroke:#003399;stroke-width:0.80900002;stroke-linejoin:round;stroke-miterlimit:4;stroke-dasharray:none;stroke-opacity:1"
       id="path12" />
    <path
       d="M 201.39155,311.56693 C 207.6632,309.44095 212.55297,304.33859 214.60809,297.85433 C 216.62777,291.37008 215.52935,284.24804 211.66714,278.72048"
       style="fill:none;stroke:#003399;stroke-width:0.80000001;stroke-linejoin:round;stroke-miterlimit:4;stroke-dasharray:none;stroke-opacity:1"
       id="path14" />
    <path
       d="M 211.66714,278.72048 C 209.29313,275.28347 205.46635,273.26378 201.39155,273.26378 C 197.31675,273.26378 193.52541,275.28347 191.11596,278.72048"
       style="fill:none;stroke:#003399;stroke-width:0.80000001;stroke-linejoin:round;stroke-miterlimit:4;stroke-dasharray:none;stroke-opacity:1"
       id="path16" />
    <path
       d="M 43.926976,364.68111 L 157.87974,0.5"
       style="fill:none;stroke:#000000;stroke-width:1;stroke-linejoin:round;stroke-miterlimit:4;stroke-dasharray:none;stroke-opacity:1"
       id="path30" />
    <path
       d="M 157.87974,0.5 L 271.8325,364.68111"
       style="fill:none;stroke:#000000;stroke-width:0.90899998;stroke-linejoin:round;stroke-miterlimit:4;stroke-dasharray:none;stroke-opacity:1"
       id="path32" />
    <path
       d="M 271.8325,364.68111 L 43.926976,364.68111"
       style="fill:none;stroke:#000000;stroke-width:1;stroke-linejoin:round;stroke-miterlimit:4;stroke-dasharray:none;stroke-opacity:1"
       id="path34" />
    <path
       d="M 43.926976,364.68111 L 228.28525,225.57087"
       style="fill:none;stroke:#000000;stroke-width:1;stroke-linejoin:round;stroke-miterlimit:4;stroke-dasharray:none;stroke-opacity:1"
       id="path36" />
    <path
       d="M 228.28525,225.57087 L 201.39155,311.56693"
       style="fill:none;stroke:#000000;stroke-width:1;stroke-linejoin:round;stroke-miterlimit:4;stroke-dasharray:none;stroke-opacity:1"
       id="path38" />
    <path
       d="M 157.87974,278.72048 L 211.66714,278.72048"
       style="fill:none;stroke:#000000;stroke-width:1;stroke-linejoin:round;stroke-miterlimit:4;stroke-dasharray:none;stroke-opacity:1"
       id="path40" />
    <path
       d="M 191.11596,278.72048 L 201.39155,311.56693"
       style="fill:none;stroke:#000000;stroke-width:1;stroke-linejoin:round;stroke-miterlimit:4;stroke-dasharray:none;stroke-opacity:1"
       id="path42" />
    <path
       d="M 195.04903,291.26378 L 211.66714,278.72048"
       style="fill:none;stroke:#000000;stroke-width:1;stroke-linejoin:round;stroke-miterlimit:4;stroke-dasharray:none;stroke-opacity:1"
       id="path44" />
    <path
       d="M 191.11596,278.72048 L 201.39155,286.48032"
       style="fill:none;stroke:#000000;stroke-width:1;stroke-linejoin:round;stroke-miterlimit:4;stroke-dasharray:none;stroke-opacity:1"
       id="path46" />
    <path
       d="M 196.53722,286.48032 L 201.39155,286.48032"
       style="fill:none;stroke:#000000;stroke-width:1;stroke-linejoin:round;stroke-miterlimit:4;stroke-dasharray:none;stroke-opacity:1"
       id="path50" />
    <path
       d="M 157.87974,278.72048 L 271.8325,364.68111"
       style="fill:none;stroke:#000000;stroke-width:1;stroke-linejoin:round;stroke-miterlimit:4;stroke-dasharray:none;stroke-opacity:1"
       id="path52" />
    <path
       d="M 197.45848,283.50394 L 195.04903,291.26378"
       style="fill:none;stroke:#000000;stroke-width:1;stroke-linejoin:round;stroke-miterlimit:4;stroke-dasharray:none;stroke-opacity:1"
       id="path48" />
    <path
       d="M 195.04903,291.26378 C 196.53722,291.75985 198.13171,291.47638 199.4073,290.55512 C 200.64746,289.59843 201.39155,288.07481 201.39155,286.48032"
       style="fill:none;stroke:#003399;stroke-width:0.80000001;stroke-linejoin:round;stroke-miterlimit:4;stroke-dasharray:none;stroke-opacity:1"
       id="path20" />
    <path
       d="M 191.11596,278.72048 C 189.6632,280.81103 189.23801,283.53937 190.01754,286.01969 C 190.79706,288.5 192.67502,290.44882 195.04903,291.26378"
       style="fill:none;stroke:#003399;stroke-width:0.80000001;stroke-linejoin:round;stroke-miterlimit:4;stroke-dasharray:none;stroke-opacity:1"
       id="path18" />
    <path
       d="M 197.45848,283.50394 C 196.92698,283.68111 196.46635,284.14174 196.28919,284.7441 C 196.11202,285.34646 196.18289,285.98426 196.53722,286.48032"
       style="fill:none;stroke:#003399;stroke-width:0.80900002;stroke-linejoin:round;stroke-miterlimit:4;stroke-dasharray:none;stroke-opacity:1"
       id="path24" />
    <path
       d="M 196.53722,286.48032 C 196.74982,286.76378 197.10415,286.97638 197.45848,286.97638 C 197.84824,286.97638 198.20257,286.76378 198.41517,286.48032"
       style="fill:none;stroke:#003399;stroke-width:0.80900002;stroke-linejoin:round;stroke-miterlimit:4;stroke-dasharray:none;stroke-opacity:1"
       id="path26" />
    <path
       d="M 201.39155,286.48032 C 201.39155,285.48819 200.93092,284.5315 200.15139,283.96457 C 199.37187,283.36221 198.37974,283.18504 197.45848,283.50394"
       style="fill:none;stroke:#003399;stroke-width:0.80900002;stroke-linejoin:round;stroke-miterlimit:4;stroke-dasharray:none;stroke-opacity:1"
       id="path22" />
    <path
       d="M 157.87974,0.5 C 88.501786,23.885827 34.112016,80.401575 11.576586,152.43701 C -10.994284,224.50788 1.0529661,303.41733 43.926976,364.68111"
       style="fill:none;stroke:#003399;stroke-width:0.80900002;stroke-linejoin:round;stroke-miterlimit:4;stroke-dasharray:none;stroke-opacity:1"
       id="path6" />
    <path
       d="M 43.926976,364.68111 C 70.430916,402.55906 112.77344,424.98819 157.87974,424.98819 C 202.95061,424.98819 245.32856,402.55906 271.8325,364.68111"
       style="fill:none;stroke:#003399;stroke-width:0.80900002;stroke-linejoin:round;stroke-miterlimit:4;stroke-dasharray:none;stroke-opacity:1"
       id="path8" />
    <path
       d="M 271.8325,364.68111 C 288.20257,341.29528 292.80887,311.14174 284.19864,283.61024 C 275.5884,256.11418 254.78919,234.53544 228.28525,225.57087"
       style="fill:none;stroke:#003399;stroke-width:0.80900002;stroke-linejoin:round;stroke-miterlimit:4;stroke-dasharray:none;stroke-opacity:1"
       id="path28" />
    <path
       d="M 228.28525,225.57087 C 211.91517,220.04331 193.98604,223.01969 180.06084,233.50788 C 166.13565,244.0315 157.87974,260.82678 157.87974,278.72048"
       style="fill:none;stroke:#003399;stroke-width:0.80900002;stroke-linejoin:round;stroke-miterlimit:4;stroke-dasharray:none;stroke-opacity:1"
       id="path10" />
  </g>
</svg>
