<svg version="1.1" xmlns="http://www.w3.org/2000/svg" xmlns:xlink="http://www.w3.org/1999/xlink" width="662" height="455"><defs><clipPath id="cHqDsSzAuHai"><path fill="none" stroke="none" d=" M 0 0 L 662 0 L 662 455 L 0 455 L 0 0 Z"/></clipPath></defs><g transform="scale(1,1)" clip-path="url(#cHqDsSzAuHai)"><g><rect fill="rgb(255,255,255)" stroke="none" x="0" y="0" width="662" height="455" fill-opacity="1"/><path fill="none" stroke="rgb(255,0,0)" paint-order="fill stroke markers" d=" M 387.5635632311843 35.65979206777911 C 189.0074204484099 35.65979206777911 28.045863632187263 196.62134888400163 28.045863632187206 395.1774916667759" stroke-opacity="0.6980392156862745" stroke-linejoin="round" stroke-miterlimit="10" stroke-dasharray="9,8"/><path fill="none" stroke="rgb(255,0,0)" paint-order="fill stroke markers" d=" M 609.7577211405389 257.85394997713365 C 609.7577211405389 135.13950506230202 510.278008146016 35.65979206777914 387.5635632311843 35.65979206777911" stroke-opacity="0.6980392156862745" stroke-linejoin="round" stroke-miterlimit="10" stroke-dasharray="9,8"/><path fill="none" stroke="rgb(255,0,0)" paint-order="fill stroke markers" d=" M 472.4341794508964 395.17749166677595 C 548.2758773188391 395.17749166677595 609.7577211405388 333.6956478450763 609.7577211405389 257.85394997713365" stroke-opacity="0.6980392156862745" stroke-linejoin="round" stroke-miterlimit="10" stroke-dasharray="9,8"/><path fill="none" stroke="rgb(255,0,0)" paint-order="fill stroke markers" d=" M 387.5635632311842 310.3068754470638 C 387.5635632311842 357.1796224939528 425.56143240400735 395.17749166677595 472.4341794508964 395.17749166677595" stroke-opacity="0.6980392156862745" stroke-linejoin="round" stroke-miterlimit="10" stroke-dasharray="9,8"/><path fill="none" stroke="rgb(0,0,255)" paint-order="fill stroke markers" d=" M 442.94383504230973 291.8978880578467 L 442.3604063340119 292.44230423259876 L 441.8199102861416 293.0641869606208 L 441.3318432988868 293.76099660584964 L 440.90568370168484 294.52910263961076 L 440.55077379786616 295.36375624737707 L 440.276195787178 296.25907490044983 L 440.0906426899432 297.208039873595 L 440.0022855324684 298.2025075950443 L 440.01863818264485 299.233235603474 L 440.1464213454502 300.2899237578402 L 440.39142733821575 301.3612712007552 L 440.7583873629976 302.43504941512333 L 441.25084307616595 303.498191537965 L 441.87102432138687 304.5368979059276 L 442.6197349396179 305.5367576053425 L 443.49624859674424 306.48288558751676 L 444.4982165743703 307.36007468916125 L 445.6215894505234 308.1529616706089 L 446.86055455329574 308.8462061531345 L 448.20749100063034 309.4246811038329 L 449.6529440426866 309.87367328491314 L 451.1856202989079 310.1790918568612 L 452.79240532976854 310.3276831047849 L 454.4584048032413 310.3072490475822 L 456.1670103086617 310.1068674936364 L 457.89999063664067 309.7171109278636 L 459.6376090840787 309.13026145645165 L 461.35876705970446 308.340518900832 L 463.0411739597751 307.34419902454505 L 464.66154295795627 306.1399187988083 L 466.1958120106369 304.72876556771115 L 467.6193890221204 303.1144469647763 L 468.9074197467322 301.30341846162486 L 470.03507663073015 299.3049854988142 L 470.9778664201442 297.1313772604094 L 471.7119539857935 294.79778930890745 L 472.2144994484591 292.32239249672904 L 472.4640053305147 289.72630581511453 L 472.4406701203826 287.0335311308658 L 472.12674431830095 284.2708480953787 L 471.50688474141054 281.46766788762193 L 470.56850260851223 278.6558448713575 L 469.3021007053255 275.8694457045395 L 467.7015947549465 273.1444759324159 L 465.76461399047474 270.5185646216873 L 463.4927758522413 268.0306081468028 L 460.89192971515683 265.7203748161168 L 457.97236459641954 263.62807261960404 L 454.7489759037082 261.79388298496383 L 451.24138646199157 260.2574640385193 L 447.4740173055134 259.05742747411887 L 443.47610404196854 258.23079372961615 L 439.2816549891736 257.8124307484087 L 434.9293477506363 257.8344821546063 L 430.4623614343997 258.32579118612944 L 425.92814232751914 259.3113272016983 L 421.378101513648 260.81162199656023 L 416.8672436595922 262.84222351924905 L 412.4537269934245 265.4131748692254 L 408.1983553458753 268.5285266647376 L 404.16400402123554 272.1858909939367 L 400.4149821959041 276.3760451929706 L 397.0163355029781 281.08259362595874 L 394.033093439963 286.2816954676616 L 391.5294672229354 291.94186620551307 L 389.5680046926731 298.02386017968587 L 388.2087098440092 304.480640965403 L 387.50813548598086 311.2574457694134 L 387.51845843375895 318.2919492624337 L 388.2865474700052 325.51453140285815 L 389.8530350791688 332.848652827142 L 392.25140463917404 340.211340293547 L 395.5071053369699 347.51378347460866 L 399.63670754380365 354.66204310765056 L 404.64711172960756 361.5578691414972 L 410.5348242010097 368.0996260725002 L 417.2853130025087 374.1833211569994 L 424.8724572146958 379.70372963492173 L 433.2581026077425 384.5556095164275 L 442.39173615485333 388.6349968878326 L 452.21029127284083 391.84057110327916 L 457.3532573874531 393.08508753959234 L 462.6380948311086 394.07507766476607 L 468.05339087474107 394.7992607038784 L 473.5869659538348 395.2467950761553 L 479.22588566351993 395.40732555856357 L 484.95647543298014 395.27103050844556 L 490.76433792181524 394.8286690039045 L 496.6343731741322 394.07162775630593 L 502.550801558942 392.99196764521275 L 508.4971895179123 391.5824697223497 L 514.4564781337051 389.8366805278133 L 520.4110145239991 387.74895655872865 L 526.3425860578947 385.3145077279296 L 532.2324573827348 382.52943964801557 L 538.0614102404592 379.39079457435014 L 543.8097860434725 375.89659083921396 L 549.4575311706624 372.0458606084497 L 554.9842449346723 367.83868579153324 L 560.3692301618447 363.2762319361082 L 565.5915463164187 358.3607799386396 L 570.6300650906267 353.09575540398623 L 575.4635283723104 347.48575548838687 L 580.0706084915844 341.5365730626028 L 584.4299706379711 335.2552180347736 L 588.5203373293087 328.6499356759445 L 592.3205548036541 321.73022179520007 L 595.8096611953847 314.50683461591626 L 598.9669563467722 306.99180320982026 L 601.7720730965115 299.198432351319 L 604.2050498770454 291.14130366094923 L 606.2464044430931 282.8362729137807 L 607.8772085445809 274.30046339620225 L 609.0791633482345 265.5522552027118 L 609.8346754034565 256.6112703731136 L 610.1269329398107 247.4983537799115 L 609.9399822755177 238.23554968563172 L 609.2588041088499 228.8460739003326 L 608.0693894572529 219.35428148063772 L 606.3588150024368 209.78562992323182 L 604.1153175936213 200.16663781790547 L 601.328367655612 190.5248389378561 L 597.9887412434639 180.88873175807217 L 594.0885904811973 171.28772440619383 L 589.6215121183894 161.7520750642315 L 584.582613935517 152.3128278539289 L 578.9685787266981 143.00174425330883 L 572.7777255869961 133.8512301070454 L 566.0100682307591 124.89425830870488 L 558.6673700675623 116.16428724855729 L 550.7531957632747 107.69517513655904 L 542.2729590155586 99.52109032617102 L 533.2339662757884 91.67641778089768 L 523.6454561529553 84.19566184174562 L 518.6485561309992 80.60254312188425 L 513.5186342396128 77.1133454701577 L 508.2574034405712 73.73237008819063 L 502.866703105352 70.46390615735413 L 497.3484996707808 67.31222741836513 L 491.7048872096699 64.28158870732227 L 485.9380879146494 61.37622245007981 L 480.0504524934301 58.6003351169262 L 474.0444604737642 55.95810363959123 L 467.9227204164267 53.45367179267299 L 461.68797003456723 51.0911465416296 L 455.3430762178336 48.8745943595444 L 448.8910349597148 46.80803751493232 L 442.33497118659307 44.89545033291154 L 435.6781384870515 43.14075543212408 L 428.92391874002914 41.54781993984437 L 422.0758216404725 40.12045168777104 L 415.1374841211889 38.86239539105287 L 408.112669669655 37.7773288131508 L 401.00526753860953 36.868858919194565 L 393.8192918493027 36.14051802054075 L 386.5588805863491 35.595759913290635 L 379.22829448319044 35.23795601357506 L 371.8319157972413 35.070391492462306 L 364.3742469738607 35.09626141338862 L 356.85990919835973 35.31866687505999 L 349.2936408353294 35.74061116281166 L 341.6802957546461 36.36499591146071 L 334.0248415435791 37.19461728272074 L 326.33235760451817 38.232162160290045 L 318.60803313789825 39.48020436576047 L 310.8571650099906 40.94120089853021 L 303.08515550530575 42.61748820293411 L 295.2975099634376 44.51127846584154 L 287.49983430026305 46.624655947995905 L 279.697832413494 48.95957335240058 L 271.8973034726699 51.517848233082304 L 264.10413909376615 54.30115944758137 L 256.32432039867524 57.31104365654744 L 248.56391495992645 60.54889187382918 L 240.8290736310818 64.0159460704707 L 233.12602726335217 67.71329583603762 L 225.461083309068 71.64187510070985 L 217.84062231273285 75.80245892158683 L 210.27109429048687 80.19566033665768 L 202.75901499890324 84.82192728989656 L 195.31096209413826 89.68153963094204 L 187.93357118255904 94.77460619281959 L 180.63353176406054 100.10106195116919 L 173.41758306940295 105.66066526842343 L 166.2925097929842 111.4529952263843 L 159.26513772257172 117.47744905063001 L 152.34232926762039 123.73323963016924 L 145.53097888790265 130.21939313574774 L 138.83800842428263 136.93474674018864 L 132.27036233356708 143.87794644412747 L 125.83500282946993 151.04744501047912 L 119.5389049318344 158.4415000109409 L 113.38905142634871 166.05817198781565 L 107.39242773711364 173.89532273438996 L 101.55601671450447 181.9506136970786 L 95.8867933408858 190.22150450250032 L 90.39171935683581 198.70525161260846 L 85.07773781063821 207.39890711095325 L 79.95176753390771 216.29931762310565 L 75.02069754630907 225.40312337421747 L 70.29138139243697 234.70675738664104 L 65.77063141402382 244.20644482046725 L 61.465212960735144 253.89820245979283 L 57.38183854292395 263.77783834744196 L 55.425499607217205 268.7867435142373 L 53.527161929801316 273.84095157082163 L 51.68764707687391 278.9398797439162 L 49.90777219658425 284.0829322015055 L 48.18834983047577 289.2695000595279 L 46.53018772427454 294.49896139107295 L 44.93408863805506 299.77068123809426 L 43.400850155818844 305.0840116256518 L 41.93126449450781 310.4382915787163 L 40.5261183124927 315.83284714153336 L 39.18619251756127 321.2669913995853 L 37.91226207444281 326.740024504146 L 36.705095811898616 332.25123369946664 L 35.565456229412334 337.79989335258733 L 34.49409930351346 343.38526498580717 L 33.49177429376465 349.0065973118216 L 32.559223548451726 354.66312627153354 L 31.697182310003924 360.35407507457245 L 30.906378520184653 366.0786542425111 L 30.18753262508247 371.83606165481893 L 29.541357379941648 377.6254825975399 L 28.968557653862938 383.44608981473283 L 28.4698302344149 389.2970435626622 L 28.04586363218721 395.1774916667759" stroke-opacity="0.6980392156862745" stroke-linecap="round" stroke-linejoin="round" stroke-miterlimit="10" stroke-width="2.5"/><path fill="none" stroke="rgb(0,0,0)" paint-order="fill stroke markers" d=" M 28.04586363218721 35.65979206777911 L 609.7577211405389 395.17749166677595" stroke-opacity="0.6980392156862745" stroke-linejoin="round" stroke-miterlimit="10" stroke-dasharray="5,4"/><path fill="none" stroke="rgb(0,0,0)" paint-order="fill stroke markers" d=" M 387.5635632311843 395.17749166677595 L 609.7577211405389 35.65979206777911" stroke-opacity="0.6980392156862745" stroke-linejoin="round" stroke-miterlimit="10" stroke-dasharray="5,4"/><path fill="none" stroke="rgb(0,0,0)" paint-order="fill stroke markers" d=" M 28.04586363218721 35.65979206777911 L 28.04586363218721 395.17749166677595" stroke-opacity="0" stroke-linejoin="round" stroke-miterlimit="10" stroke-dasharray="5,4"/><path fill="none" stroke="rgb(0,0,0)" paint-order="fill stroke markers" d=" M 28.04586363218721 395.17749166677595 L 387.5635632311843 395.17749166677595" stroke-opacity="0" stroke-linejoin="round" stroke-miterlimit="10" stroke-dasharray="5,4"/><path fill="none" stroke="rgb(0,0,0)" paint-order="fill stroke markers" d=" M 387.5635632311843 35.65979206777911 L 28.04586363218721 35.65979206777911" stroke-opacity="0" stroke-linejoin="round" stroke-miterlimit="10" stroke-dasharray="5,4"/><path fill="none" stroke="rgb(0,0,0)" paint-order="fill stroke markers" d=" M 387.5635632311843 35.65979206777911 L 387.5635632311843 395.17749166677595" stroke-opacity="0.6980392156862745" stroke-linecap="round" stroke-linejoin="round" stroke-miterlimit="10"/><path fill="none" stroke="rgb(0,0,0)" paint-order="fill stroke markers" d=" M 387.5635632311842 257.85394997713365 L 609.7577211405389 257.85394997713365" stroke-opacity="0.6980392156862745" stroke-linecap="round" stroke-linejoin="round" stroke-miterlimit="10"/><path fill="none" stroke="rgb(0,0,0)" paint-order="fill stroke markers" d=" M 472.4341794508964 257.8539499771336 L 472.4341794508964 395.17749166677595" stroke-opacity="0.6980392156862745" stroke-linecap="round" stroke-linejoin="round" stroke-miterlimit="10"/><path fill="none" stroke="rgb(0,0,0)" paint-order="fill stroke markers" d=" M 387.5635632311842 310.3068754470638 L 472.4341794508964 310.3068754470638" stroke-opacity="0.6980392156862745" stroke-linecap="round" stroke-linejoin="round" stroke-miterlimit="10"/><path fill="none" stroke="rgb(0,0,0)" paint-order="fill stroke markers" d=" M 440.01648870111444 257.8539499771336 L 440.0164887011146 310.30687544706376" stroke-opacity="0.6980392156862745" stroke-linecap="round" stroke-linejoin="round" stroke-miterlimit="10"/><path fill="none" stroke="rgb(0,0,0)" paint-order="fill stroke markers" d=" M 609.7577211405389 395.17749166677595 L 609.7577211405389 35.65979206777911" stroke-opacity="0.6980392156862745" stroke-linecap="round" stroke-linejoin="round" stroke-miterlimit="10" stroke-width="2.5"/><path fill="none" stroke="rgb(0,0,0)" paint-order="fill stroke markers" d=" M 28.04586363218721 35.65979206777911 L 609.7577211405389 35.65979206777911" stroke-opacity="0.6980392156862745" stroke-linecap="round" stroke-linejoin="round" stroke-miterlimit="10" stroke-width="2.5"/><path fill="none" stroke="rgb(0,0,0)" paint-order="fill stroke markers" d=" M 28.04586363218721 35.65979206777911 L 28.04586363218721 395.17749166677595" stroke-opacity="0.6980392156862745" stroke-linecap="round" stroke-linejoin="round" stroke-miterlimit="10" stroke-width="2.5"/><path fill="none" stroke="rgb(0,0,0)" paint-order="fill stroke markers" d=" M 28.04586363218721 395.17749166677595 L 609.7577211405389 395.17749166677595" stroke-opacity="0.6980392156862745" stroke-linecap="round" stroke-linejoin="round" stroke-miterlimit="10" stroke-width="2.5"/><path fill="rgb(68,68,68)" stroke="none" paint-order="stroke fill markers" d=" M 452.9765180569976 295.8092434090481 C 452.9765180569976 298.0183824083713 451.18565705632074 299.8092434090481 448.9765180569976 299.8092434090481 C 446.7673790576744 299.8092434090481 444.9765180569976 298.0183824083713 444.9765180569976 295.8092434090481 C 444.9765180569976 293.60010440972496 446.7673790576744 291.8092434090481 448.9765180569976 291.8092434090481 C 451.18565705632074 291.8092434090481 452.9765180569976 293.60010440972496 452.9765180569976 295.8092434090481 Z" fill-opacity="1"/><path fill="none" stroke="rgb(0,0,0)" paint-order="fill stroke markers" d=" M 452.9765180569976 295.8092434090481 C 452.9765180569976 298.0183824083713 451.18565705632074 299.8092434090481 448.9765180569976 299.8092434090481 C 446.7673790576744 299.8092434090481 444.9765180569976 298.0183824083713 444.9765180569976 295.8092434090481 C 444.9765180569976 293.60010440972496 446.7673790576744 291.8092434090481 448.9765180569976 291.8092434090481 C 451.18565705632074 291.8092434090481 452.9765180569976 293.60010440972496 452.9765180569976 295.8092434090481 Z" stroke-opacity="1" stroke-linecap="round" stroke-linejoin="round" stroke-miterlimit="10"/></g></g></svg>