<?xml version="1.0" encoding="utf-8"?>

<!-- Pascal's Triangle rows 0-16.  R. A. Nonenmacher 23-Jun-2008  -->

<!DOCTYPE svg PUBLIC "-//W3C//DTD SVG 1.1//EN" "http://www.w3.org/Graphics/SVG/1.1/DTD/svg11.dtd" [
	<!ENTITY ns_svg "http://www.w3.org/2000/svg">
	<!ENTITY ns_xlink "http://www.w3.org/1999/xlink">
]>
<svg version="1.1" 
     id="Layer_1" 
     xmlns="&ns_svg;" 
     xmlns:xlink="&ns_xlink;" 
     width="615" 
     height="370" 
     viewBox="0 0 615 370"
	   overflow="visible" 
	   enable-background="new 0 0 615 370" 
	   xml:space="preserve">
	 
<rect x="288.5" y="0.5"   fill="#DDDCE7" stroke="#000000" width="36" height="21.6"/> <text transform="matrix(1 0 0 1 302.9 14.9)" font-family="'Myriad-Roman'" font-size="10">1</text>

<rect x="270.5" y="22.1"  fill="#DDDCE7" stroke="#000000" width="36" height="21.6"/> <text transform="matrix(1 0 0 1 284.9 36.5)" font-family="'Myriad-Roman'" font-size="10">1</text>
<rect x="306.5" y="22.1"  fill="#D6CED0" stroke="#000000" width="36" height="21.6"/> <text transform="matrix(1 0 0 1 320.9 36.5)" font-family="'Myriad-Roman'" font-size="10">1</text>

<rect x="252.5" y="43.7"  fill="#DDDCE7" stroke="#000000" width="36" height="21.6"/> <text transform="matrix(1 0 0 1 266.9 58.1)" font-family="'Myriad-Roman'" font-size="10">1</text>
<rect x="288.5" y="43.7"  fill="#D6CED0" stroke="#000000" width="36" height="21.6"/> <text transform="matrix(1 0 0 1 302.9 58.1)" font-family="'Myriad-Roman'" font-size="10">2</text>
<rect x="324.5" y="43.7"  fill="#DDDCE7" stroke="#000000" width="36" height="21.6"/> <text transform="matrix(1 0 0 1 338.9 58.1)" font-family="'Myriad-Roman'" font-size="10">1</text>

<rect x="234.5" y="65.3"  fill="#DDDCE7" stroke="#000000" width="36" height="21.6"/> <text transform="matrix(1 0 0 1 248.9 79.7)" font-family="'Myriad-Roman'" font-size="10">1</text>
<rect x="270.5" y="65.3"  fill="#D6CED0" stroke="#000000" width="36" height="21.6"/> <text transform="matrix(1 0 0 1 284.9 79.7)" font-family="'Myriad-Roman'" font-size="10">3</text>
<rect x="306.5" y="65.3"  fill="#DDDCE7" stroke="#000000" width="36" height="21.6"/> <text transform="matrix(1 0 0 1 320.9 79.7)" font-family="'Myriad-Roman'" font-size="10">3</text>
<rect x="342.5" y="65.3"  fill="#D6CED0" stroke="#000000" width="36" height="21.6"/> <text transform="matrix(1 0 0 1 356.9 79.7)" font-family="'Myriad-Roman'" font-size="10">1</text>

<rect x="216.5" y="86.9"  fill="#DDDCE7" stroke="#000000" width="36" height="21.6"/> <text transform="matrix(1 0 0 1 230.9 101.3)" font-family="'Myriad-Roman'" font-size="10">1</text>
<rect x="252.5" y="86.9"  fill="#D6CED0" stroke="#000000" width="36" height="21.6"/> <text transform="matrix(1 0 0 1 266.9 101.3)" font-family="'Myriad-Roman'" font-size="10">4</text>
<rect x="288.5" y="86.9"  fill="#DDDCE7" stroke="#000000" width="36" height="21.6"/> <text transform="matrix(1 0 0 1 302.9 101.3)" font-family="'Myriad-Roman'" font-size="10">6</text>
<rect x="324.5" y="86.9"  fill="#D6CED0" stroke="#000000" width="36" height="21.6"/> <text transform="matrix(1 0 0 1 338.9 101.3)" font-family="'Myriad-Roman'" font-size="10">4</text>
<rect x="360.5" y="86.9"  fill="#DDDCE7" stroke="#000000" width="36" height="21.6"/> <text transform="matrix(1 0 0 1 374.9 101.3)" font-family="'Myriad-Roman'" font-size="10">1</text>

<rect x="198.5" y="108.5" fill="#DDDCE7" stroke="#000000" width="36" height="21.6"/> <text transform="matrix(1 0 0 1 212.9 122.9)" font-family="'Myriad-Roman'" font-size="10">1</text>
<rect x="234.5" y="108.5" fill="#D6CED0" stroke="#000000" width="36" height="21.6"/> <text transform="matrix(1 0 0 1 248.9 122.9)" font-family="'Myriad-Roman'" font-size="10">5</text>
<rect x="270.5" y="108.5" fill="#DDDCE7" stroke="#000000" width="36" height="21.6"/> <text transform="matrix(1 0 0 1 284.9 122.9)" font-family="'Myriad-Roman'" font-size="10">10</text>
<rect x="306.5" y="108.5" fill="#D6CED0" stroke="#000000" width="36" height="21.6"/> <text transform="matrix(1 0 0 1 320.9 122.9)" font-family="'Myriad-Roman'" font-size="10">10</text>
<rect x="342.5" y="108.5" fill="#DDDCE7" stroke="#000000" width="36" height="21.6"/> <text transform="matrix(1 0 0 1 356.9 122.9)" font-family="'Myriad-Roman'" font-size="10">5</text>
<rect x="378.5" y="108.5" fill="#D6CED0" stroke="#000000" width="36" height="21.6"/> <text transform="matrix(1 0 0 1 392.9 122.9)" font-family="'Myriad-Roman'" font-size="10">1</text>

<rect x="180.5" y="130.1" fill="#DDDCE7" stroke="#000000" width="36" height="21.6"/> <text transform="matrix(1 0 0 1 194.9 144.5)" font-family="'Myriad-Roman'" font-size="10">1</text>
<rect x="216.5" y="130.1" fill="#D6CED0" stroke="#000000" width="36" height="21.6"/> <text transform="matrix(1 0 0 1 230.9 144.5)" font-family="'Myriad-Roman'" font-size="10">6</text>
<rect x="252.5" y="130.1" fill="#DDDCE7" stroke="#000000" width="36" height="21.6"/> <text transform="matrix(1 0 0 1 266.9 144.5)" font-family="'Myriad-Roman'" font-size="10">15</text>
<rect x="288.5" y="130.1" fill="#D6CED0" stroke="#000000" width="36" height="21.6"/> <text transform="matrix(1 0 0 1 302.9 144.5)" font-family="'Myriad-Roman'" font-size="10">20</text>
<rect x="324.5" y="130.1" fill="#DDDCE7" stroke="#000000" width="36" height="21.6"/> <text transform="matrix(1 0 0 1 338.9 144.5)" font-family="'Myriad-Roman'" font-size="10">15</text>
<rect x="360.5" y="130.1" fill="#D6CED0" stroke="#000000" width="36" height="21.6"/> <text transform="matrix(1 0 0 1 374.9 144.5)" font-family="'Myriad-Roman'" font-size="10">6</text>
<rect x="396.5" y="130.1" fill="#DDDCE7" stroke="#000000" width="36" height="21.6"/> <text transform="matrix(1 0 0 1 410.9 144.5)" font-family="'Myriad-Roman'" font-size="10">1</text>

<rect x="162.5" y="151.7" fill="#DDDCE7" stroke="#000000" width="36" height="21.6"/> <text transform="matrix(1 0 0 1 176.9 166.1)" font-family="'Myriad-Roman'" font-size="10">1</text>
<rect x="198.5" y="151.7" fill="#D6CED0" stroke="#000000" width="36" height="21.6"/> <text transform="matrix(1 0 0 1 212.9 166.1)" font-family="'Myriad-Roman'" font-size="10">7</text>
<rect x="234.5" y="151.7" fill="#DDDCE7" stroke="#000000" width="36" height="21.6"/> <text transform="matrix(1 0 0 1 248.9 166.1)" font-family="'Myriad-Roman'" font-size="10">21</text>
<rect x="270.5" y="151.7" fill="#D6CED0" stroke="#000000" width="36" height="21.6"/> <text transform="matrix(1 0 0 1 284.9 166.1)" font-family="'Myriad-Roman'" font-size="10">35</text>
<rect x="306.5" y="151.7" fill="#DDDCE7" stroke="#000000" width="36" height="21.6"/> <text transform="matrix(1 0 0 1 320.9 166.1)" font-family="'Myriad-Roman'" font-size="10">35</text>
<rect x="342.5" y="151.7" fill="#D6CED0" stroke="#000000" width="36" height="21.6"/> <text transform="matrix(1 0 0 1 356.9 166.1)" font-family="'Myriad-Roman'" font-size="10">21</text>
<rect x="378.5" y="151.7" fill="#DDDCE7" stroke="#000000" width="36" height="21.6"/> <text transform="matrix(1 0 0 1 392.9 166.1)" font-family="'Myriad-Roman'" font-size="10">7</text>
<rect x="414.5" y="151.7" fill="#D6CED0" stroke="#000000" width="36" height="21.6"/> <text transform="matrix(1 0 0 1 428.9 166.1)" font-family="'Myriad-Roman'" font-size="10">1</text>

<rect x="144.5" y="173.3" fill="#DDDCE7" stroke="#000000" width="36" height="21.6"/> <text transform="matrix(1 0 0 1 158.9 187.7)" font-family="'Myriad-Roman'" font-size="10">1</text>
<rect x="180.5" y="173.3" fill="#D6CED0" stroke="#000000" width="36" height="21.6"/> <text transform="matrix(1 0 0 1 194.9 187.7)" font-family="'Myriad-Roman'" font-size="10">8</text>
<rect x="216.5" y="173.3" fill="#DDDCE7" stroke="#000000" width="36" height="21.6"/> <text transform="matrix(1 0 0 1 230.9 187.7)" font-family="'Myriad-Roman'" font-size="10">28</text>
<rect x="252.5" y="173.3" fill="#D6CED0" stroke="#000000" width="36" height="21.6"/> <text transform="matrix(1 0 0 1 266.9 187.7)" font-family="'Myriad-Roman'" font-size="10">56</text>
<rect x="288.5" y="173.3" fill="#DDDCE7" stroke="#000000" width="36" height="21.6"/> <text transform="matrix(1 0 0 1 302.9 187.7)" font-family="'Myriad-Roman'" font-size="10">70</text>
<rect x="324.5" y="173.3" fill="#D6CED0" stroke="#000000" width="36" height="21.6"/> <text transform="matrix(1 0 0 1 338.9 187.7)" font-family="'Myriad-Roman'" font-size="10">56</text>
<rect x="360.5" y="173.3" fill="#DDDCE7" stroke="#000000" width="36" height="21.6"/> <text transform="matrix(1 0 0 1 374.9 187.7)" font-family="'Myriad-Roman'" font-size="10">28</text>
<rect x="396.5" y="173.3" fill="#D6CED0" stroke="#000000" width="36" height="21.6"/> <text transform="matrix(1 0 0 1 410.9 187.7)" font-family="'Myriad-Roman'" font-size="10">8</text>
<rect x="432.5" y="173.3" fill="#DDDCE7" stroke="#000000" width="36" height="21.6"/> <text transform="matrix(1 0 0 1 446.9 187.7)" font-family="'Myriad-Roman'" font-size="10">1</text>

<rect x="126.5" y="194.9" fill="#DDDCE7" stroke="#000000" width="36" height="21.6"/> <text transform="matrix(1 0 0 1 140.9 209.3)" font-family="'Myriad-Roman'" font-size="10">1</text>
<rect x="162.5" y="194.9" fill="#D6CED0" stroke="#000000" width="36" height="21.6"/> <text transform="matrix(1 0 0 1 176.9 209.3)" font-family="'Myriad-Roman'" font-size="10">9</text>
<rect x="198.5" y="194.9" fill="#DDDCE7" stroke="#000000" width="36" height="21.6"/> <text transform="matrix(1 0 0 1 212.9 209.3)" font-family="'Myriad-Roman'" font-size="10">36</text>
<rect x="234.5" y="194.9" fill="#D6CED0" stroke="#000000" width="36" height="21.6"/> <text transform="matrix(1 0 0 1 248.9 209.3)" font-family="'Myriad-Roman'" font-size="10">84</text>
<rect x="270.5" y="194.9" fill="#DDDCE7" stroke="#000000" width="36" height="21.6"/> <text transform="matrix(1 0 0 1 281.3 209.3)" font-family="'Myriad-Roman'" font-size="10">126</text>
<rect x="306.5" y="194.9" fill="#D6CED0" stroke="#000000" width="36" height="21.6"/> <text transform="matrix(1 0 0 1 317.3 209.3)" font-family="'Myriad-Roman'" font-size="10">126</text>
<rect x="342.5" y="194.9" fill="#DDDCE7" stroke="#000000" width="36" height="21.6"/> <text transform="matrix(1 0 0 1 356.9 209.3)" font-family="'Myriad-Roman'" font-size="10">84</text>
<rect x="378.5" y="194.9" fill="#D6CED0" stroke="#000000" width="36" height="21.6"/> <text transform="matrix(1 0 0 1 392.9 209.3)" font-family="'Myriad-Roman'" font-size="10">36</text>
<rect x="414.5" y="194.9" fill="#DDDCE7" stroke="#000000" width="36" height="21.6"/> <text transform="matrix(1 0 0 1 428.9 209.3)" font-family="'Myriad-Roman'" font-size="10">9</text>
<rect x="450.5" y="194.9" fill="#D6CED0" stroke="#000000" width="36" height="21.6"/> <text transform="matrix(1 0 0 1 464.9 209.3)" font-family="'Myriad-Roman'" font-size="10">1</text>

<rect x="108.5" y="216.5" fill="#DDDCE7" stroke="#000000" width="36" height="21.6"/> <text transform="matrix(1 0 0 1 122.9 230.9)" font-family="'Myriad-Roman'" font-size="10">1</text>
<rect x="144.5" y="216.5" fill="#D6CED0" stroke="#000000" width="36" height="21.6"/> <text transform="matrix(1 0 0 1 158.9 230.9)" font-family="'Myriad-Roman'" font-size="10">10</text>
<rect x="180.5" y="216.5" fill="#DDDCE7" stroke="#000000" width="36" height="21.6"/> <text transform="matrix(1 0 0 1 194.9 230.9)" font-family="'Myriad-Roman'" font-size="10">45</text>
<rect x="216.5" y="216.5" fill="#D6CED0" stroke="#000000" width="36" height="21.6"/> <text transform="matrix(1 0 0 1 227.3 230.9)" font-family="'Myriad-Roman'" font-size="10">120</text>
<rect x="252.5" y="216.5" fill="#DDDCE7" stroke="#000000" width="36" height="21.6"/> <text transform="matrix(1 0 0 1 263.3 230.9)" font-family="'Myriad-Roman'" font-size="10">210</text>
<rect x="288.5" y="216.5" fill="#D6CED0" stroke="#000000" width="36" height="21.6"/> <text transform="matrix(1 0 0 1 299.3 230.9)" font-family="'Myriad-Roman'" font-size="10">252</text>
<rect x="324.5" y="216.5" fill="#DDDCE7" stroke="#000000" width="36" height="21.6"/> <text transform="matrix(1 0 0 1 335.3 230.9)" font-family="'Myriad-Roman'" font-size="10">210</text>
<rect x="360.5" y="216.5" fill="#D6CED0" stroke="#000000" width="36" height="21.6"/> <text transform="matrix(1 0 0 1 371.3 230.9)" font-family="'Myriad-Roman'" font-size="10">120</text>
<rect x="396.5" y="216.5" fill="#DDDCE7" stroke="#000000" width="36" height="21.6"/> <text transform="matrix(1 0 0 1 410.9 230.9)" font-family="'Myriad-Roman'" font-size="10">45</text>
<rect x="432.5" y="216.5" fill="#D6CED0" stroke="#000000" width="36" height="21.6"/> <text transform="matrix(1 0 0 1 446.9 230.9)" font-family="'Myriad-Roman'" font-size="10">10</text>
<rect x="468.5" y="216.5" fill="#DDDCE7" stroke="#000000" width="36" height="21.6"/> <text transform="matrix(1 0 0 1 482.9 230.9)" font-family="'Myriad-Roman'" font-size="10">1</text>

<rect x="90.5"  y="238.1" fill="#DDDCE7" stroke="#000000" width="36" height="21.6"/> <text transform="matrix(1 0 0 1 104.9 252.5)" font-family="'Myriad-Roman'" font-size="10">1</text>
<rect x="126.5" y="238.1" fill="#D6CED0" stroke="#000000" width="36" height="21.6"/> <text transform="matrix(1 0 0 1 140.9 252.5)" font-family="'Myriad-Roman'" font-size="10">11</text>
<rect x="162.5" y="238.1" fill="#DDDCE7" stroke="#000000" width="36" height="21.6"/> <text transform="matrix(1 0 0 1 176.9 252.5)" font-family="'Myriad-Roman'" font-size="10">55</text>
<rect x="198.5" y="238.1" fill="#D6CED0" stroke="#000000" width="36" height="21.6"/> <text transform="matrix(1 0 0 1 209.3 252.5)" font-family="'Myriad-Roman'" font-size="10">165</text>
<rect x="234.5" y="238.1" fill="#DDDCE7" stroke="#000000" width="36" height="21.6"/> <text transform="matrix(1 0 0 1 245.3 252.5)" font-family="'Myriad-Roman'" font-size="10">330</text>
<rect x="270.5" y="238.1" fill="#D6CED0" stroke="#000000" width="36" height="21.6"/> <text transform="matrix(1 0 0 1 281.3 252.5)" font-family="'Myriad-Roman'" font-size="10">462</text>
<rect x="306.5" y="238.1" fill="#DDDCE7" stroke="#000000" width="36" height="21.6"/> <text transform="matrix(1 0 0 1 317.3 252.5)" font-family="'Myriad-Roman'" font-size="10">462</text>
<rect x="342.5" y="238.1" fill="#D6CED0" stroke="#000000" width="36" height="21.6"/> <text transform="matrix(1 0 0 1 353.3 252.5)" font-family="'Myriad-Roman'" font-size="10">330</text>
<rect x="378.5" y="238.1" fill="#DDDCE7" stroke="#000000" width="36" height="21.6"/> <text transform="matrix(1 0 0 1 389.3 252.5)" font-family="'Myriad-Roman'" font-size="10">165</text>
<rect x="414.5" y="238.1" fill="#D6CED0" stroke="#000000" width="36" height="21.6"/> <text transform="matrix(1 0 0 1 428.9 252.5)" font-family="'Myriad-Roman'" font-size="10">55</text>
<rect x="450.5" y="238.1" fill="#DDDCE7" stroke="#000000" width="36" height="21.6"/> <text transform="matrix(1 0 0 1 464.9 252.5)" font-family="'Myriad-Roman'" font-size="10">11</text>
<rect x="486.5" y="238.1" fill="#D6CED0" stroke="#000000" width="36" height="21.6"/> <text transform="matrix(1 0 0 1 500.9 252.5)" font-family="'Myriad-Roman'" font-size="10">1</text>

<rect x="72.5"  y="259.7" fill="#DDDCE7" stroke="#000000" width="36" height="21.6"/> <text transform="matrix(1 0 0 1 86.9  274.1)" font-family="'Myriad-Roman'" font-size="10">1</text>
<rect x="108.5" y="259.7" fill="#D6CED0" stroke="#000000" width="36" height="21.6"/> <text transform="matrix(1 0 0 1 122.9 274.1)" font-family="'Myriad-Roman'" font-size="10">12</text>
<rect x="144.5" y="259.7" fill="#DDDCE7" stroke="#000000" width="36" height="21.6"/> <text transform="matrix(1 0 0 1 158.9 274.1)" font-family="'Myriad-Roman'" font-size="10">66</text>
<rect x="180.5" y="259.7" fill="#D6CED0" stroke="#000000" width="36" height="21.6"/> <text transform="matrix(1 0 0 1 191.3 274.1)" font-family="'Myriad-Roman'" font-size="10">220</text>
<rect x="216.5" y="259.7" fill="#DDDCE7" stroke="#000000" width="36" height="21.6"/> <text transform="matrix(1 0 0 1 227.3 274.1)" font-family="'Myriad-Roman'" font-size="10">495</text>
<rect x="252.5" y="259.7" fill="#D6CED0" stroke="#000000" width="36" height="21.6"/> <text transform="matrix(1 0 0 1 263.3 274.1)" font-family="'Myriad-Roman'" font-size="10">792</text>
<rect x="288.5" y="259.7" fill="#DDDCE7" stroke="#000000" width="36" height="21.6"/> <text transform="matrix(1 0 0 1 299.3 274.1)" font-family="'Myriad-Roman'" font-size="10">924</text>
<rect x="324.5" y="259.7" fill="#D6CED0" stroke="#000000" width="36" height="21.6"/> <text transform="matrix(1 0 0 1 335.3 274.1)" font-family="'Myriad-Roman'" font-size="10">792</text>
<rect x="360.5" y="259.7" fill="#DDDCE7" stroke="#000000" width="36" height="21.6"/> <text transform="matrix(1 0 0 1 371.3 274.1)" font-family="'Myriad-Roman'" font-size="10">495</text>
<rect x="396.5" y="259.7" fill="#D6CED0" stroke="#000000" width="36" height="21.6"/> <text transform="matrix(1 0 0 1 407.3 274.1)" font-family="'Myriad-Roman'" font-size="10">220</text>
<rect x="432.5" y="259.7" fill="#DDDCE7" stroke="#000000" width="36" height="21.6"/> <text transform="matrix(1 0 0 1 446.9 274.1)" font-family="'Myriad-Roman'" font-size="10">66</text>
<rect x="468.5" y="259.7" fill="#D6CED0" stroke="#000000" width="36" height="21.6"/> <text transform="matrix(1 0 0 1 482.9 274.1)" font-family="'Myriad-Roman'" font-size="10">12</text>
<rect x="504.5" y="259.7" fill="#DDDCE7" stroke="#000000" width="36" height="21.6"/> <text transform="matrix(1 0 0 1 518.9 274.1)" font-family="'Myriad-Roman'" font-size="10">1</text>

<rect x="54.5"  y="281.3" fill="#DDDCE7" stroke="#000000" width="36" height="21.6"/> <text transform="matrix(1 0 0 1 68.9  295.7)" font-family="'Myriad-Roman'" font-size="10">1</text>
<rect x="90.5"  y="281.3" fill="#D6CED0" stroke="#000000" width="36" height="21.6"/> <text transform="matrix(1 0 0 1 104.9 295.7)" font-family="'Myriad-Roman'" font-size="10">13</text>
<rect x="126.5" y="281.3" fill="#DDDCE7" stroke="#000000" width="36" height="21.6"/> <text transform="matrix(1 0 0 1 140.9 295.7)" font-family="'Myriad-Roman'" font-size="10">78</text>
<rect x="162.5" y="281.3" fill="#D6CED0" stroke="#000000" width="36" height="21.6"/> <text transform="matrix(1 0 0 1 173.3 295.7)" font-family="'Myriad-Roman'" font-size="10">286</text>
<rect x="198.5" y="281.3" fill="#DDDCE7" stroke="#000000" width="36" height="21.6"/> <text transform="matrix(1 0 0 1 209.3 295.7)" font-family="'Myriad-Roman'" font-size="10">715</text>
<rect x="234.5" y="281.3" fill="#D6CED0" stroke="#000000" width="36" height="21.6"/> <text transform="matrix(1 0 0 1 241.7 295.7)" font-family="'Myriad-Roman'" font-size="10">1287</text>
<rect x="270.5" y="281.3" fill="#DDDCE7" stroke="#000000" width="36" height="21.6"/> <text transform="matrix(1 0 0 1 277.7 295.7)" font-family="'Myriad-Roman'" font-size="10">1716</text>
<rect x="306.5" y="281.3" fill="#D6CED0" stroke="#000000" width="36" height="21.6"/> <text transform="matrix(1 0 0 1 313.7 295.7)" font-family="'Myriad-Roman'" font-size="10">1716</text>
<rect x="342.5" y="281.3" fill="#DDDCE7" stroke="#000000" width="36" height="21.6"/> <text transform="matrix(1 0 0 1 349.7 295.7)" font-family="'Myriad-Roman'" font-size="10">1287</text>
<rect x="378.5" y="281.3" fill="#D6CED0" stroke="#000000" width="36" height="21.6"/> <text transform="matrix(1 0 0 1 389.3 295.7)" font-family="'Myriad-Roman'" font-size="10">715</text>
<rect x="414.5" y="281.3" fill="#DDDCE7" stroke="#000000" width="36" height="21.6"/> <text transform="matrix(1 0 0 1 428.9 295.7)" font-family="'Myriad-Roman'" font-size="10">286</text>
<rect x="450.5" y="281.3" fill="#D6CED0" stroke="#000000" width="36" height="21.6"/> <text transform="matrix(1 0 0 1 464.9 295.7)" font-family="'Myriad-Roman'" font-size="10">78</text>
<rect x="486.5" y="281.3" fill="#DDDCE7" stroke="#000000" width="36" height="21.6"/> <text transform="matrix(1 0 0 1 500.9 295.7)" font-family="'Myriad-Roman'" font-size="10">13</text>
<rect x="522.5" y="281.3" fill="#D6CED0" stroke="#000000" width="36" height="21.6"/> <text transform="matrix(1 0 0 1 536.9 295.7)" font-family="'Myriad-Roman'" font-size="10">1</text>

<rect x="36.5"  y="302.9" fill="#DDDCE7" stroke="#000000" width="36" height="21.6"/> <text transform="matrix(1 0 0 1 50.9  317.3)" font-family="'Myriad-Roman'" font-size="10">1</text>
<rect x="72.5"  y="302.9" fill="#D6CED0" stroke="#000000" width="36" height="21.6"/> <text transform="matrix(1 0 0 1 86.9  317.3)" font-family="'Myriad-Roman'" font-size="10">14</text>
<rect x="108.5" y="302.9" fill="#DDDCE7" stroke="#000000" width="36" height="21.6"/> <text transform="matrix(1 0 0 1 122.9 317.3)" font-family="'Myriad-Roman'" font-size="10">91</text>
<rect x="144.5" y="302.9" fill="#D6CED0" stroke="#000000" width="36" height="21.6"/> <text transform="matrix(1 0 0 1 155.3 317.3)" font-family="'Myriad-Roman'" font-size="10">364</text>
<rect x="180.5" y="302.9" fill="#DDDCE7" stroke="#000000" width="36" height="21.6"/> <text transform="matrix(1 0 0 1 187.7 317.3)" font-family="'Myriad-Roman'" font-size="10">1001</text>
<rect x="216.5" y="302.9" fill="#D6CED0" stroke="#000000" width="36" height="21.6"/> <text transform="matrix(1 0 0 1 223.7 317.3)" font-family="'Myriad-Roman'" font-size="10">2002</text>
<rect x="252.5" y="302.9" fill="#DDDCE7" stroke="#000000" width="36" height="21.6"/> <text transform="matrix(1 0 0 1 259.7 317.3)" font-family="'Myriad-Roman'" font-size="10">3003</text>
<rect x="288.5" y="302.9" fill="#D6CED0" stroke="#000000" width="36" height="21.6"/> <text transform="matrix(1 0 0 1 295.7 317.3)" font-family="'Myriad-Roman'" font-size="10">3432</text>
<rect x="324.5" y="302.9" fill="#DDDCE7" stroke="#000000" width="36" height="21.6"/> <text transform="matrix(1 0 0 1 331.7 317.3)" font-family="'Myriad-Roman'" font-size="10">3003</text>
<rect x="360.5" y="302.9" fill="#D6CED0" stroke="#000000" width="36" height="21.6"/> <text transform="matrix(1 0 0 1 367.7 317.3)" font-family="'Myriad-Roman'" font-size="10">2002</text>
<rect x="396.5" y="302.9" fill="#DDDCE7" stroke="#000000" width="36" height="21.6"/> <text transform="matrix(1 0 0 1 403.7 317.3)" font-family="'Myriad-Roman'" font-size="10">1001</text>
<rect x="432.5" y="302.9" fill="#D6CED0" stroke="#000000" width="36" height="21.6"/> <text transform="matrix(1 0 0 1 443.3 317.3)" font-family="'Myriad-Roman'" font-size="10">364</text>
<rect x="468.5" y="302.9" fill="#DDDCE7" stroke="#000000" width="36" height="21.6"/> <text transform="matrix(1 0 0 1 482.9 317.3)" font-family="'Myriad-Roman'" font-size="10">91</text>
<rect x="504.5" y="302.9" fill="#D6CED0" stroke="#000000" width="36" height="21.6"/> <text transform="matrix(1 0 0 1 518.9 317.3)" font-family="'Myriad-Roman'" font-size="10">14</text>
<rect x="540.5" y="302.9" fill="#DDDCE7" stroke="#000000" width="36" height="21.6"/> <text transform="matrix(1 0 0 1 554.9 317.3)" font-family="'Myriad-Roman'" font-size="10">1</text>

<rect x="18.5"  y="324.5" fill="#DDDCE7" stroke="#000000" width="36" height="21.6"/> <text transform="matrix(1 0 0 1 32.9  338.9)" font-family="'Myriad-Roman'" font-size="10">1</text>
<rect x="54.5"  y="324.5" fill="#D6CED0" stroke="#000000" width="36" height="21.6"/> <text transform="matrix(1 0 0 1 68.9  338.9)" font-family="'Myriad-Roman'" font-size="10">15</text>
<rect x="90.5"  y="324.5" fill="#DDDCE7" stroke="#000000" width="36" height="21.6"/> <text transform="matrix(1 0 0 1 101.3 338.9)" font-family="'Myriad-Roman'" font-size="10">105</text>
<rect x="126.5" y="324.5" fill="#D6CED0" stroke="#000000" width="36" height="21.6"/> <text transform="matrix(1 0 0 1 137.3 338.9)" font-family="'Myriad-Roman'" font-size="10">455</text>
<rect x="162.5" y="324.5" fill="#DDDCE7" stroke="#000000" width="36" height="21.6"/> <text transform="matrix(1 0 0 1 169.7 338.9)" font-family="'Myriad-Roman'" font-size="10">1365</text>
<rect x="198.5" y="324.5" fill="#D6CED0" stroke="#000000" width="36" height="21.6"/> <text transform="matrix(1 0 0 1 205.7 338.9)" font-family="'Myriad-Roman'" font-size="10">3003</text>
<rect x="234.5" y="324.5" fill="#DDDCE7" stroke="#000000" width="36" height="21.6"/> <text transform="matrix(1 0 0 1 241.7 338.9)" font-family="'Myriad-Roman'" font-size="10">5005</text>
<rect x="270.5" y="324.5" fill="#D6CED0" stroke="#000000" width="36" height="21.6"/> <text transform="matrix(1 0 0 1 277.7 338.9)" font-family="'Myriad-Roman'" font-size="10">6435</text>
<rect x="306.5" y="324.5" fill="#DDDCE7" stroke="#000000" width="36" height="21.6"/> <text transform="matrix(1 0 0 1 313.7 338.9)" font-family="'Myriad-Roman'" font-size="10">6435</text>
<rect x="342.5" y="324.5" fill="#D6CED0" stroke="#000000" width="36" height="21.6"/> <text transform="matrix(1 0 0 1 349.7 338.9)" font-family="'Myriad-Roman'" font-size="10">5005</text>
<rect x="378.5" y="324.5" fill="#DDDCE7" stroke="#000000" width="36" height="21.6"/> <text transform="matrix(1 0 0 1 385.7 338.9)" font-family="'Myriad-Roman'" font-size="10">3003</text>
<rect x="414.5" y="324.5" fill="#D6CED0" stroke="#000000" width="36" height="21.6"/> <text transform="matrix(1 0 0 1 421.7 338.9)" font-family="'Myriad-Roman'" font-size="10">1365</text>
<rect x="450.5" y="324.5" fill="#DDDCE7" stroke="#000000" width="36" height="21.6"/> <text transform="matrix(1 0 0 1 461.3 338.9)" font-family="'Myriad-Roman'" font-size="10">455</text>
<rect x="486.5" y="324.5" fill="#D6CED0" stroke="#000000" width="36" height="21.6"/> <text transform="matrix(1 0 0 1 497.3 338.9)" font-family="'Myriad-Roman'" font-size="10">105</text>
<rect x="522.5" y="324.5" fill="#DDDCE7" stroke="#000000" width="36" height="21.6"/> <text transform="matrix(1 0 0 1 536.9 338.9)" font-family="'Myriad-Roman'" font-size="10">15</text>
<rect x="558.5" y="324.5" fill="#D6CED0" stroke="#000000" width="36" height="21.6"/> <text transform="matrix(1 0 0 1 572.9 338.9)" font-family="'Myriad-Roman'" font-size="10">1</text>

<rect x="0.5"   y="346.1" fill="#DDDCE7" stroke="#000000" width="36" height="21.6"/> <text transform="matrix(1 0 0 1 14.9  360.5)" font-family="'Myriad-Roman'" font-size="10">1</text>
<rect x="36.5"  y="346.1" fill="#D6CED0" stroke="#000000" width="36" height="21.6"/> <text transform="matrix(1 0 0 1 50.9  360.5)" font-family="'Myriad-Roman'" font-size="10">16</text>
<rect x="72.5"  y="346.1" fill="#DDDCE7" stroke="#000000" width="36" height="21.6"/> <text transform="matrix(1 0 0 1 83.3  360.5)" font-family="'Myriad-Roman'" font-size="10">120</text>
<rect x="108.5" y="346.1" fill="#D6CED0" stroke="#000000" width="36" height="21.6"/> <text transform="matrix(1 0 0 1 119.3 360.5)" font-family="'Myriad-Roman'" font-size="10">560</text>
<rect x="144.5" y="346.1" fill="#DDDCE7" stroke="#000000" width="36" height="21.6"/> <text transform="matrix(1 0 0 1 151.6 360.5)" font-family="'Myriad-Roman'" font-size="10">1820</text>
<rect x="180.5" y="346.1" fill="#D6CED0" stroke="#000000" width="36" height="21.6"/> <text transform="matrix(1 0 0 1 187.6 360.5)" font-family="'Myriad-Roman'" font-size="10">4368</text>
<rect x="216.5" y="346.1" fill="#DDDCE7" stroke="#000000" width="36" height="21.6"/> <text transform="matrix(1 0 0 1 223.6 360.5)" font-family="'Myriad-Roman'" font-size="10">8008</text>
<rect x="252.5" y="346.1" fill="#D6CED0" stroke="#000000" width="36" height="21.6"/> <text transform="matrix(1 0 0 1 255.1 360.5)" font-family="'Myriad-Roman'" font-size="10">11440</text>
<rect x="288.5" y="346.1" fill="#DDDCE7" stroke="#000000" width="36" height="21.6"/> <text transform="matrix(1 0 0 1 291.1 360.5)" font-family="'Myriad-Roman'" font-size="10">12870</text>
<rect x="324.5" y="346.1" fill="#D6CED0" stroke="#000000" width="36" height="21.6"/> <text transform="matrix(1 0 0 1 327.1 360.5)" font-family="'Myriad-Roman'" font-size="10">11440</text>
<rect x="360.5" y="346.1" fill="#DDDCE7" stroke="#000000" width="36" height="21.6"/> <text transform="matrix(1 0 0 1 367.6 360.5)" font-family="'Myriad-Roman'" font-size="10">8008</text>
<rect x="396.5" y="346.1" fill="#D6CED0" stroke="#000000" width="36" height="21.6"/> <text transform="matrix(1 0 0 1 403.6 360.5)" font-family="'Myriad-Roman'" font-size="10">4368</text>
<rect x="432.5" y="346.1" fill="#DDDCE7" stroke="#000000" width="36" height="21.6"/> <text transform="matrix(1 0 0 1 439.6 360.5)" font-family="'Myriad-Roman'" font-size="10">1820</text>
<rect x="468.5" y="346.1" fill="#D6CED0" stroke="#000000" width="36" height="21.6"/> <text transform="matrix(1 0 0 1 479.3 360.5)" font-family="'Myriad-Roman'" font-size="10">560</text>
<rect x="504.5" y="346.1" fill="#DDDCE7" stroke="#000000" width="36" height="21.6"/> <text transform="matrix(1 0 0 1 515.3 360.5)" font-family="'Myriad-Roman'" font-size="10">120</text>
<rect x="540.5" y="346.1" fill="#D6CED0" stroke="#000000" width="36" height="21.6"/> <text transform="matrix(1 0 0 1 554.9 360.5)" font-family="'Myriad-Roman'" font-size="10">16</text>
<rect x="576.5" y="346.1" fill="#DDDCE7" stroke="#000000" width="36" height="21.6"/> <text transform="matrix(1 0 0 1 590.9 360.5)" font-family="'Myriad-Roman'" font-size="10">1</text>

</svg>
